<mxfile host="app.diagrams.net" modified="2022-07-14T05:40:27.216Z" agent="5.0 (Macintosh; Intel Mac OS X 10_15_7) AppleWebKit/537.36 (KHTML, like Gecko) Chrome/103.0.0.0 Safari/537.36" etag="XHcZvWEJx1TvwaIsS4Yz" version="20.1.1" type="github">
  <diagram id="_LxJx1vaS36MO5N9sxja" name="Page-1">
    <mxGraphModel dx="2351" dy="843" grid="1" gridSize="10" guides="1" tooltips="1" connect="1" arrows="1" fold="1" page="1" pageScale="1" pageWidth="850" pageHeight="1100" math="0" shadow="0">
      <root>
        <mxCell id="0" />
        <mxCell id="1" parent="0" />
        <mxCell id="RznpsTiiR-RghVBuMiab-2" value="" style="rounded=1;whiteSpace=wrap;html=1;fillColor=none;dashed=1;glass=0;shadow=0;perimeterSpacing=0;" vertex="1" parent="1">
          <mxGeometry x="-240" y="360" width="1000" height="140" as="geometry" />
        </mxCell>
        <mxCell id="LTWpkLG5G5hy6Ok1S2tH-29" value="" style="rounded=1;whiteSpace=wrap;html=1;fillColor=none;dashed=1;glass=0;shadow=0;perimeterSpacing=0;" parent="1" vertex="1">
          <mxGeometry x="-190" y="230" width="140" height="260" as="geometry" />
        </mxCell>
        <mxCell id="LTWpkLG5G5hy6Ok1S2tH-26" style="edgeStyle=orthogonalEdgeStyle;rounded=0;orthogonalLoop=1;jettySize=auto;html=1;exitX=1;exitY=0.25;exitDx=0;exitDy=0;entryX=0;entryY=0.25;entryDx=0;entryDy=0;" parent="1" source="LTWpkLG5G5hy6Ok1S2tH-1" target="LTWpkLG5G5hy6Ok1S2tH-5" edge="1">
          <mxGeometry relative="1" as="geometry" />
        </mxCell>
        <mxCell id="LTWpkLG5G5hy6Ok1S2tH-1" value="receiver1" style="rounded=0;whiteSpace=wrap;html=1;" parent="1" vertex="1">
          <mxGeometry x="-180" y="280" width="120" height="40" as="geometry" />
        </mxCell>
        <mxCell id="RznpsTiiR-RghVBuMiab-7" style="edgeStyle=orthogonalEdgeStyle;rounded=0;orthogonalLoop=1;jettySize=auto;html=1;exitX=1;exitY=0.5;exitDx=0;exitDy=0;entryX=0;entryY=0.5;entryDx=0;entryDy=0;" edge="1" parent="1" source="LTWpkLG5G5hy6Ok1S2tH-3" target="RznpsTiiR-RghVBuMiab-4">
          <mxGeometry relative="1" as="geometry" />
        </mxCell>
        <mxCell id="LTWpkLG5G5hy6Ok1S2tH-3" value="receiver2" style="rounded=0;whiteSpace=wrap;html=1;" parent="1" vertex="1">
          <mxGeometry x="-180" y="400" width="120" height="40" as="geometry" />
        </mxCell>
        <mxCell id="LTWpkLG5G5hy6Ok1S2tH-4" value="......" style="text;html=1;strokeColor=none;fillColor=none;align=center;verticalAlign=middle;whiteSpace=wrap;rounded=0;" parent="1" vertex="1">
          <mxGeometry x="-150" y="360" width="60" height="30" as="geometry" />
        </mxCell>
        <mxCell id="LTWpkLG5G5hy6Ok1S2tH-20" style="edgeStyle=orthogonalEdgeStyle;rounded=0;orthogonalLoop=1;jettySize=auto;html=1;exitX=1;exitY=0.5;exitDx=0;exitDy=0;" parent="1" source="LTWpkLG5G5hy6Ok1S2tH-5" target="LTWpkLG5G5hy6Ok1S2tH-6" edge="1">
          <mxGeometry relative="1" as="geometry" />
        </mxCell>
        <mxCell id="LTWpkLG5G5hy6Ok1S2tH-5" value="processor1" style="rounded=0;whiteSpace=wrap;html=1;" parent="1" vertex="1">
          <mxGeometry x="140" y="280" width="120" height="40" as="geometry" />
        </mxCell>
        <mxCell id="LTWpkLG5G5hy6Ok1S2tH-19" style="edgeStyle=orthogonalEdgeStyle;rounded=0;orthogonalLoop=1;jettySize=auto;html=1;exitX=1;exitY=0.5;exitDx=0;exitDy=0;entryX=0;entryY=0.5;entryDx=0;entryDy=0;" parent="1" source="LTWpkLG5G5hy6Ok1S2tH-6" target="LTWpkLG5G5hy6Ok1S2tH-9" edge="1">
          <mxGeometry relative="1" as="geometry" />
        </mxCell>
        <mxCell id="LTWpkLG5G5hy6Ok1S2tH-6" value="processor2" style="rounded=0;whiteSpace=wrap;html=1;" parent="1" vertex="1">
          <mxGeometry x="290" y="280" width="120" height="40" as="geometry" />
        </mxCell>
        <mxCell id="LTWpkLG5G5hy6Ok1S2tH-7" value="metric&lt;br&gt;exporter 1" style="rounded=0;whiteSpace=wrap;html=1;" parent="1" vertex="1">
          <mxGeometry x="600" y="240" width="120" height="40" as="geometry" />
        </mxCell>
        <mxCell id="LTWpkLG5G5hy6Ok1S2tH-8" value="metric&lt;br&gt;exporter m" style="rounded=0;whiteSpace=wrap;html=1;" parent="1" vertex="1">
          <mxGeometry x="600" y="340" width="120" height="40" as="geometry" />
        </mxCell>
        <mxCell id="LTWpkLG5G5hy6Ok1S2tH-10" style="edgeStyle=orthogonalEdgeStyle;rounded=0;orthogonalLoop=1;jettySize=auto;html=1;exitX=1;exitY=0.25;exitDx=0;exitDy=0;entryX=0;entryY=0.5;entryDx=0;entryDy=0;" parent="1" source="LTWpkLG5G5hy6Ok1S2tH-9" target="LTWpkLG5G5hy6Ok1S2tH-7" edge="1">
          <mxGeometry relative="1" as="geometry" />
        </mxCell>
        <mxCell id="LTWpkLG5G5hy6Ok1S2tH-13" style="edgeStyle=orthogonalEdgeStyle;rounded=0;orthogonalLoop=1;jettySize=auto;html=1;exitX=1;exitY=0.75;exitDx=0;exitDy=0;entryX=0;entryY=0.25;entryDx=0;entryDy=0;" parent="1" source="LTWpkLG5G5hy6Ok1S2tH-9" target="LTWpkLG5G5hy6Ok1S2tH-8" edge="1">
          <mxGeometry relative="1" as="geometry" />
        </mxCell>
        <mxCell id="LTWpkLG5G5hy6Ok1S2tH-9" value="metrics&lt;br&gt;fanout exporter" style="rounded=0;whiteSpace=wrap;html=1;" parent="1" vertex="1">
          <mxGeometry x="440" y="280" width="120" height="40" as="geometry" />
        </mxCell>
        <mxCell id="LTWpkLG5G5hy6Ok1S2tH-14" style="edgeStyle=orthogonalEdgeStyle;rounded=0;orthogonalLoop=1;jettySize=auto;html=1;exitX=1;exitY=0.25;exitDx=0;exitDy=0;entryX=0;entryY=0.75;entryDx=0;entryDy=0;" parent="1" source="LTWpkLG5G5hy6Ok1S2tH-12" target="LTWpkLG5G5hy6Ok1S2tH-8" edge="1">
          <mxGeometry relative="1" as="geometry" />
        </mxCell>
        <mxCell id="LTWpkLG5G5hy6Ok1S2tH-16" style="edgeStyle=orthogonalEdgeStyle;rounded=0;orthogonalLoop=1;jettySize=auto;html=1;exitX=1;exitY=0.75;exitDx=0;exitDy=0;" parent="1" source="LTWpkLG5G5hy6Ok1S2tH-12" target="LTWpkLG5G5hy6Ok1S2tH-15" edge="1">
          <mxGeometry relative="1" as="geometry" />
        </mxCell>
        <mxCell id="LTWpkLG5G5hy6Ok1S2tH-12" value="metrics&lt;br&gt;fanout exporter" style="rounded=0;whiteSpace=wrap;html=1;" parent="1" vertex="1">
          <mxGeometry x="440" y="400" width="120" height="40" as="geometry" />
        </mxCell>
        <mxCell id="LTWpkLG5G5hy6Ok1S2tH-15" value="metric&lt;br&gt;exporter n" style="rounded=0;whiteSpace=wrap;html=1;" parent="1" vertex="1">
          <mxGeometry x="600" y="440" width="120" height="40" as="geometry" />
        </mxCell>
        <mxCell id="LTWpkLG5G5hy6Ok1S2tH-17" value="" style="rounded=1;whiteSpace=wrap;html=1;fillColor=none;dashed=1;glass=0;shadow=0;perimeterSpacing=0;" parent="1" vertex="1">
          <mxGeometry x="590" y="230" width="140" height="260" as="geometry" />
        </mxCell>
        <mxCell id="LTWpkLG5G5hy6Ok1S2tH-18" value="allExporters" style="text;html=1;strokeColor=none;fillColor=none;align=center;verticalAlign=middle;whiteSpace=wrap;rounded=0;shadow=0;glass=0;dashed=1;" parent="1" vertex="1">
          <mxGeometry x="630" y="190" width="60" height="30" as="geometry" />
        </mxCell>
        <mxCell id="LTWpkLG5G5hy6Ok1S2tH-24" style="edgeStyle=orthogonalEdgeStyle;rounded=0;orthogonalLoop=1;jettySize=auto;html=1;exitX=1;exitY=0.5;exitDx=0;exitDy=0;entryX=0;entryY=0.5;entryDx=0;entryDy=0;" parent="1" source="LTWpkLG5G5hy6Ok1S2tH-21" target="LTWpkLG5G5hy6Ok1S2tH-22" edge="1">
          <mxGeometry relative="1" as="geometry" />
        </mxCell>
        <mxCell id="LTWpkLG5G5hy6Ok1S2tH-21" value="processorm" style="rounded=0;whiteSpace=wrap;html=1;" parent="1" vertex="1">
          <mxGeometry x="140" y="400" width="120" height="40" as="geometry" />
        </mxCell>
        <mxCell id="LTWpkLG5G5hy6Ok1S2tH-23" style="edgeStyle=orthogonalEdgeStyle;rounded=0;orthogonalLoop=1;jettySize=auto;html=1;exitX=1;exitY=0.5;exitDx=0;exitDy=0;entryX=0;entryY=0.5;entryDx=0;entryDy=0;" parent="1" source="LTWpkLG5G5hy6Ok1S2tH-22" target="LTWpkLG5G5hy6Ok1S2tH-12" edge="1">
          <mxGeometry relative="1" as="geometry" />
        </mxCell>
        <mxCell id="LTWpkLG5G5hy6Ok1S2tH-22" value="processorn" style="rounded=0;whiteSpace=wrap;html=1;" parent="1" vertex="1">
          <mxGeometry x="290" y="400" width="120" height="40" as="geometry" />
        </mxCell>
        <mxCell id="LTWpkLG5G5hy6Ok1S2tH-30" value="allReceivers" style="text;html=1;strokeColor=none;fillColor=none;align=center;verticalAlign=middle;whiteSpace=wrap;rounded=0;shadow=0;glass=0;dashed=1;" parent="1" vertex="1">
          <mxGeometry x="-160" y="190" width="60" height="30" as="geometry" />
        </mxCell>
        <mxCell id="RznpsTiiR-RghVBuMiab-3" value="pipeline1" style="text;html=1;align=center;verticalAlign=middle;resizable=0;points=[];autosize=1;strokeColor=none;fillColor=none;" vertex="1" parent="1">
          <mxGeometry x="-310" y="400" width="70" height="30" as="geometry" />
        </mxCell>
        <mxCell id="RznpsTiiR-RghVBuMiab-8" style="edgeStyle=orthogonalEdgeStyle;rounded=0;orthogonalLoop=1;jettySize=auto;html=1;exitX=1;exitY=0.5;exitDx=0;exitDy=0;entryX=0;entryY=0.5;entryDx=0;entryDy=0;" edge="1" parent="1" source="RznpsTiiR-RghVBuMiab-4" target="LTWpkLG5G5hy6Ok1S2tH-21">
          <mxGeometry relative="1" as="geometry" />
        </mxCell>
        <mxCell id="RznpsTiiR-RghVBuMiab-9" style="edgeStyle=orthogonalEdgeStyle;rounded=0;orthogonalLoop=1;jettySize=auto;html=1;exitX=1;exitY=0.25;exitDx=0;exitDy=0;entryX=0;entryY=0.5;entryDx=0;entryDy=0;" edge="1" parent="1" source="RznpsTiiR-RghVBuMiab-4" target="LTWpkLG5G5hy6Ok1S2tH-5">
          <mxGeometry relative="1" as="geometry" />
        </mxCell>
        <mxCell id="RznpsTiiR-RghVBuMiab-4" value="metrics&lt;br&gt;fanout consumer" style="rounded=0;whiteSpace=wrap;html=1;" vertex="1" parent="1">
          <mxGeometry x="-20" y="400" width="120" height="40" as="geometry" />
        </mxCell>
      </root>
    </mxGraphModel>
  </diagram>
</mxfile>
